<svg width="24" height="24" viewBox="0 0 24 24" fill="none" xmlns="http://www.w3.org/2000/svg">
<path d="M9.66704 12C9.66704 10.7114 10.7114 9.66648 12 9.66648C13.2886 9.66648 14.3335 10.7114 14.3335 12C14.3335 13.2886 13.2886 14.3335 12 14.3335C10.7114 14.3335 9.66704 13.2886 9.66704 12ZM8.40557 12C8.40557 13.9852 10.0148 15.5944 12 15.5944C13.9852 15.5944 15.5944 13.9852 15.5944 12C15.5944 10.0148 13.9852 8.40557 12 8.40557C10.0148 8.40557 8.40557 10.0148 8.40557 12ZM14.8967 8.26309C14.8967 8.72674 15.2727 9.10331 15.7369 9.10331C16.2006 9.10331 16.5771 8.72674 16.5771 8.26309C16.5771 7.79943 16.2011 7.42342 15.7369 7.42342C15.2727 7.42342 14.8967 7.79943 14.8967 8.26309ZM9.17173 17.6978C8.48926 17.6667 8.11834 17.5531 7.87181 17.4569C7.54499 17.3297 7.31204 17.1782 7.06664 16.9334C6.82181 16.6885 6.66971 16.4556 6.54305 16.1288C6.44693 15.8822 6.33328 15.5113 6.30218 14.8288C6.26826 14.091 6.26147 13.8693 6.26147 12C6.26147 10.1307 6.26882 9.90961 6.30218 9.17116C6.33328 8.48869 6.4475 8.11834 6.54305 7.87124C6.67027 7.54443 6.82181 7.31147 7.06664 7.06607C7.31147 6.82124 7.54443 6.66914 7.87181 6.54249C8.11834 6.44636 8.48926 6.33271 9.17173 6.30162C9.90961 6.26769 10.1313 6.2609 12 6.2609C13.8693 6.2609 14.0904 6.26826 14.8288 6.30162C15.5113 6.33271 15.8817 6.44693 16.1288 6.54249C16.4556 6.66914 16.6885 6.82124 16.9339 7.06607C17.1788 7.3109 17.3303 7.54443 17.4575 7.87124C17.5536 8.11777 17.6673 8.48869 17.6984 9.17116C17.7323 9.90961 17.7391 10.1307 17.7391 12C17.7391 13.8687 17.7323 14.0904 17.6984 14.8288C17.6673 15.5113 17.5531 15.8822 17.4575 16.1288C17.3303 16.4556 17.1788 16.6885 16.9339 16.9334C16.6891 17.1782 16.4556 17.3297 16.1288 17.4569C15.8822 17.5531 15.5113 17.6667 14.8288 17.6978C14.091 17.7317 13.8693 17.7385 12 17.7385C10.1313 17.7385 9.90961 17.7317 9.17173 17.6978ZM9.11406 5.04241C8.36882 5.07633 7.85994 5.19451 7.41494 5.36753C6.95469 5.5462 6.56454 5.78595 6.17496 6.17496C5.78595 6.56397 5.5462 6.95412 5.36753 7.41494C5.19451 7.85994 5.07633 8.36882 5.04241 9.11405C5.00792 9.86042 5 10.099 5 12C5 13.901 5.00792 14.1396 5.04241 14.8859C5.07633 15.6312 5.19451 16.1401 5.36753 16.5851C5.5462 17.0453 5.78538 17.436 6.17496 17.825C6.56397 18.2141 6.95412 18.4532 7.41494 18.6325C7.8605 18.8055 8.36882 18.9237 9.11406 18.9576C9.86099 18.9915 10.099 19 12 19C13.9015 19 14.1396 18.9921 14.8859 18.9576C15.6312 18.9237 16.1401 18.8055 16.5851 18.6325C17.0453 18.4532 17.4355 18.2141 17.825 17.825C18.2141 17.436 18.4532 17.0453 18.6325 16.5851C18.8055 16.1401 18.9242 15.6312 18.9576 14.8859C18.9915 14.139 18.9994 13.901 18.9994 12C18.9994 10.099 18.9915 9.86042 18.9576 9.11405C18.9237 8.36882 18.8055 7.85994 18.6325 7.41494C18.4532 6.95468 18.2141 6.56454 17.825 6.17496C17.436 5.78595 17.0453 5.5462 16.5856 5.36753C16.1401 5.19451 15.6312 5.07577 14.8865 5.04241C14.1401 5.00848 13.9015 5 12.0006 5C10.099 5 9.86099 5.00792 9.11406 5.04241Z" fill="#EAFF6A"/>
</svg>
