<svg width="16" height="16" viewBox="0 0 16 16" fill="none" xmlns="http://www.w3.org/2000/svg">
    <path
        d="M10.5 6.625C11.52 7.35737 12.7443 7.75089 14 7.75V5.25C13.0717 5.25 12.1815 4.88125 11.5251 4.22487C10.8687 3.5685 10.5 2.67826 10.5 1.75H8V9.75C7.99998 10.0632 7.91592 10.3706 7.75659 10.6402C7.59726 10.9098 7.3685 11.1317 7.09418 11.2828C6.81985 11.4339 6.51001 11.5086 6.19699 11.4991C5.88396 11.4896 5.57921 11.3963 5.31454 11.2289C5.04987 11.0615 4.83496 10.8261 4.69226 10.5473C4.54955 10.2686 4.48426 9.95662 4.50321 9.64402C4.52215 9.33142 4.62463 9.02964 4.79996 8.77015C4.97529 8.51065 5.21705 8.30297 5.5 8.16875V5.56875C4.70411 5.71144 3.96544 6.07821 3.3707 6.62601C2.77596 7.1738 2.34983 7.87989 2.14233 8.66139C1.93483 9.44289 1.95457 10.2674 2.19923 11.038C2.4439 11.8087 2.90333 12.4936 3.52361 13.0123C4.14388 13.531 4.89926 13.862 5.70106 13.9665C6.50287 14.0709 7.31783 13.9444 8.05028 13.6019C8.78273 13.2594 9.40228 12.7151 9.83619 12.0328C10.2701 11.3505 10.5004 10.5586 10.5 9.75V6.625Z"
        stroke="#EAFF6A" stroke-linecap="round" stroke-linejoin="round" />
</svg>