<svg width="24" height="24" viewBox="0 0 24 24" fill="none" xmlns="http://www.w3.org/2000/svg">
    <path
        d="M9.40286 18C14.6861 18 17.5754 13.7684 17.5754 10.0989C17.5754 9.97874 17.5728 9.85912 17.5672 9.73999C18.1294 9.34672 18.6146 8.85978 19 8.30202C18.4853 8.52322 17.9315 8.67211 17.3505 8.73924C17.9435 8.39546 18.3988 7.85159 18.6136 7.20331C18.0498 7.52668 17.4329 7.75464 16.7897 7.87736C16.2655 7.33759 15.5193 7 14.693 7C13.1068 7 11.8205 8.2436 11.8205 9.77654C11.8205 9.99447 11.8458 10.2064 11.8951 10.4097C9.5078 10.2936 7.39096 9.18859 5.97425 7.50836C5.71909 7.93215 5.58488 8.41379 5.58533 8.9041C5.58533 9.86753 6.0924 10.718 6.86354 11.2156C6.4074 11.2021 5.96127 11.083 5.56267 10.8683C5.56225 10.8799 5.56225 10.8913 5.56225 10.9038C5.56225 12.2486 6.55232 13.3714 7.86661 13.6259C7.61977 13.6909 7.36506 13.7237 7.10922 13.7236C6.92446 13.7236 6.74439 13.706 6.56939 13.6735C6.93507 14.7769 7.99543 15.5798 9.25261 15.6022C8.26951 16.3472 7.03111 16.7909 5.68515 16.7909C5.45618 16.7911 5.2274 16.7782 5 16.7524C6.27121 17.5402 7.78065 17.9998 9.403 17.9998"
        fill="#EAFF6A" />
</svg>