<svg width="150" height="30" viewBox="0 0 150 30" fill="none" xmlns="http://www.w3.org/2000/svg">
<g clip-path="url(#clip0_1146_27507)">
<path d="M0 0H29.9853V30H0V0Z" fill="#FC6723"/>
<path d="M29.9844 0H149.53V10.9393C148.424 10.7411 147.295 11.2092 146.514 11.9833C146.268 12.2257 146.037 12.4842 145.76 12.6911C145.73 12.0817 145.673 11.4549 145.386 10.9045C144.841 11.0277 144.306 11.1924 143.769 11.3437C143.808 11.8065 143.958 12.2531 143.971 12.7199C144.039 14.0364 144.019 15.3562 144.029 16.6741C144.033 18.6141 144.024 20.5547 144.033 22.4946C144.632 22.508 145.231 22.508 145.83 22.4946C145.833 20.7556 145.829 19.0165 145.832 17.2768C145.824 16.6292 145.839 15.9817 145.867 15.3342C145.889 14.8882 145.831 14.3833 146.128 14.0089C146.433 13.6199 146.809 13.2919 147.236 13.042C147.67 12.7989 148.182 12.8109 148.664 12.7996C148.741 12.7808 148.877 12.8129 148.909 12.7138C149.137 12.1768 149.288 11.6096 149.53 11.0779V30H29.9844V0Z" fill="#1F2023"/>
<path d="M82.5089 6.20243C82.9904 6.08725 83.4759 5.93458 83.9754 5.9406C84.252 5.95333 84.2935 6.27877 84.3183 6.49239C84.3853 7.49638 84.4201 8.50225 84.4228 9.50846C84.467 10.466 84.4609 11.425 84.4797 12.3839C85.0208 11.9681 85.5511 11.5187 86.192 11.2636C87.2172 10.8129 88.4473 10.8076 89.4471 11.3306C90.5219 11.8683 91.2725 12.9062 91.6502 14.0272C92.0038 15.0906 92.0888 16.2297 92.0292 17.3433C91.9335 18.6444 91.5799 19.9609 90.8085 21.0297C90.3518 21.6491 89.7518 22.1922 89.0185 22.4553C87.844 22.8852 86.4725 22.7312 85.4185 22.0596C85.0844 21.8506 84.8031 21.5714 84.4971 21.3263C84.3739 21.7114 84.2808 22.1058 84.1609 22.4928C83.5978 22.4989 83.0292 22.5384 82.4714 22.4466C82.6964 21.546 82.7018 20.6131 82.7266 19.6904C82.7681 16.4527 82.7232 13.2143 82.7098 9.97654C82.6382 8.71895 82.7433 7.4473 82.5089 6.20243ZM95.5857 6.39127C95.9456 6.27863 96.3339 6.29834 96.6806 6.44685C96.9947 6.64852 97.2357 6.94569 97.3683 7.29462C97.6 8.04395 96.9913 8.88502 96.2286 8.97074C95.6393 9.03636 94.9917 8.6915 94.8089 8.10757C94.5665 7.4473 94.9395 6.65243 95.5857 6.39127ZM42.4376 7.7473C43.294 7.17408 44.2925 6.74283 45.3365 6.72944C46.3992 6.71002 47.5007 6.78569 48.4784 7.23837C48.8789 7.42185 49.2826 7.61471 49.6155 7.90935C49.3724 8.32922 49.0516 8.69551 48.7483 9.07118C48.3592 8.84016 47.9748 8.59172 47.5429 8.44507C46.4902 8.07342 45.2936 7.99373 44.2436 8.41694C43.365 8.75109 42.6472 9.43346 42.1965 10.2511C41.8851 10.827 41.6246 11.4384 41.4947 12.0832C41.3789 12.7127 41.342 13.3535 41.332 13.9924C41.2978 14.8415 41.2583 15.6933 41.3099 16.5417C41.4592 17.721 41.8684 18.9082 42.6726 19.8049C43.3771 20.6152 44.4177 21.0906 45.4771 21.1971C46.0349 21.2279 46.6048 21.2352 47.1498 21.094C47.8128 20.9486 48.4001 20.6004 49.0128 20.3259C49.3704 20.6808 49.6811 21.0799 49.9731 21.4897C49.516 21.747 49.0437 21.9762 48.5588 22.1761C47.2516 22.7058 45.8019 22.7172 44.4184 22.5839C43.4233 22.377 42.4999 21.8741 41.7324 21.2138C40.8472 20.4437 40.199 19.4219 39.8086 18.3196C39.5454 17.577 39.4168 16.7935 39.3472 16.0107C39.3197 15.4288 39.2548 14.8448 39.3204 14.2623C39.3405 13.1594 39.5193 12.0471 39.9592 11.0292C40.4889 9.75221 41.2838 8.54083 42.4376 7.7473Z" fill="#FC6723"/>
<path d="M8.91016 7.47517C9.04208 7.44571 9.17333 7.41223 9.30926 7.40821C9.95346 7.39482 10.597 7.435 11.2405 7.45508C11.3423 7.43901 11.3778 7.53343 11.4153 7.60709C12.3963 9.61736 13.3633 11.6357 14.3537 13.6419C14.5666 14.0584 14.7575 14.487 14.9986 14.8888C15.2015 14.5593 15.3662 14.2078 15.545 13.8649C16.6573 11.7227 17.7093 9.54906 18.8041 7.39817C19.5287 7.42026 20.2606 7.34861 20.9791 7.46714C20.8486 7.87763 20.6135 8.24259 20.4274 8.62897C18.9903 11.3825 17.5144 14.1154 16.064 16.8616C16.0115 16.968 15.9869 17.0859 15.9923 17.2044C15.995 19.1671 15.9923 21.1305 15.9937 23.0933C15.2939 23.0939 14.5941 23.0979 13.8943 23.0906C13.9017 21.1747 13.8923 19.2589 13.899 17.343C13.8963 17.1375 13.9224 16.9171 13.8086 16.7343C12.472 14.2272 11.1307 11.7227 9.80145 9.21223C9.50748 8.63165 9.17534 8.06982 8.91016 7.47517Z" fill="white"/>
<path d="M124.856 8.3361C125.43 8.15128 126.02 8.01468 126.614 7.9082C126.527 9.00173 126.447 10.0959 126.409 11.1928C127.342 11.2149 128.275 11.2149 129.208 11.2531C129.046 11.6723 128.875 12.0876 128.694 12.4986C127.908 12.5013 127.122 12.4953 126.336 12.5013C126.334 13.5131 126.345 14.5243 126.345 15.5361C126.336 16.3397 126.393 17.1419 126.38 17.9461C126.401 18.8569 126.354 19.7723 126.457 20.6796C126.483 21.0573 126.823 21.3232 127.164 21.4196C127.733 21.5502 128.328 21.504 128.892 21.366C129.044 21.6946 129.113 22.0552 129.094 22.4167C128.582 22.6832 127.996 22.7348 127.431 22.785C126.634 22.8171 125.746 22.6906 125.173 22.0792C124.702 21.6412 124.739 20.9448 124.684 20.3562C124.627 19.0631 124.65 17.7674 124.643 16.4729C124.64 15.1491 124.647 13.8258 124.64 12.502C124.142 12.4953 123.645 12.4999 123.149 12.4993C123.13 12.0667 123.133 11.6334 123.146 11.2008C123.634 11.1968 124.123 11.2075 124.611 11.1935C124.685 10.2406 124.702 9.28097 124.856 8.3361ZM55.5424 10.9611C55.9322 10.9116 56.3259 10.9303 56.7177 10.9336C57.1817 10.9491 57.6578 10.9236 58.1052 11.0709C59.1317 11.4238 60.0351 12.1363 60.5842 13.0765C61.0516 13.8874 61.3804 14.7975 61.4179 15.7397C61.4761 17.0053 61.5183 18.3078 61.1219 19.5285C60.7529 20.6736 59.9453 21.6941 58.8652 22.2412C57.7911 22.7964 56.5054 22.9002 55.3435 22.5874C54.2989 22.3129 53.3922 21.6245 52.7929 20.7332C52.1266 19.7776 51.9016 18.5944 51.8607 17.4499C51.8339 16.343 51.8125 15.204 52.1808 14.1432C52.5284 13.0973 53.2 12.141 54.1415 11.5511C54.5741 11.2859 55.0415 11.0582 55.5424 10.9611ZM64.5103 11.3127C65.03 11.1457 65.5599 11.0122 66.0967 10.9129C66.3163 11.4155 66.4505 11.9512 66.4938 12.4979C66.8601 12.3078 67.146 12.0031 67.4875 11.7747C68.267 11.2169 69.2139 10.862 70.1815 10.9035C70.3998 10.9182 70.6114 10.9879 70.8069 11.0863C71.1398 11.2531 71.4793 11.4245 71.7505 11.6863C72.0364 11.9562 72.2159 12.3124 72.4128 12.6473C72.8494 12.4524 73.1875 12.1049 73.5793 11.8397C74.259 11.3703 75.0337 10.9979 75.8654 10.9169C76.6268 10.8299 77.4237 11.085 77.9808 11.6153C78.2326 11.8571 78.5005 12.1028 78.6398 12.431C78.775 12.7511 78.8165 13.1006 78.848 13.4441C78.9806 15.2542 78.8895 17.0716 78.9605 18.8836C78.9605 20.0883 78.9692 21.2924 78.9699 22.497C78.3672 22.5057 77.7652 22.5098 77.1632 22.493C77.1652 20.687 77.1639 18.8816 77.1639 17.0756C77.1585 15.9145 77.186 14.7513 77.0909 13.5928C77.0662 13.4082 77.0042 13.2305 76.9085 13.0707C76.8128 12.9109 76.6855 12.7722 76.5344 12.6633C76.1828 12.4316 75.7402 12.4571 75.3391 12.4799C74.6273 12.5468 74.0319 12.9928 73.4949 13.4274C73.2404 13.6424 72.9759 13.8453 72.7281 14.0676C72.6511 14.1285 72.6753 14.239 72.6665 14.3247C72.6672 17.0482 72.6712 19.7723 72.6645 22.4964C72.0652 22.5064 71.4652 22.5091 70.8665 22.4937C70.8672 20.3749 70.8679 18.2569 70.8659 16.1381C70.8612 15.6238 70.8766 15.1082 70.8344 14.5953C70.8023 14.0723 70.8558 13.5111 70.6107 13.0303C70.2451 12.5127 69.5206 12.4042 68.9393 12.5475C68.0333 12.7651 67.2518 13.3236 66.5668 13.9357C66.4556 14.0066 66.4663 14.1446 66.4657 14.2591C66.471 17.0033 66.4636 19.7482 66.469 22.4924C65.9433 22.5084 65.417 22.5098 64.892 22.491C64.8424 19.6819 64.8773 16.87 64.8009 14.0602C64.7848 13.4227 64.7855 12.7832 64.7011 12.1497C64.6502 11.8678 64.5578 11.5953 64.5103 11.3127ZM95.1652 11.2136C95.7424 11.1292 96.317 11.0294 96.8895 10.9182C96.9625 12.4999 96.9371 14.0857 96.9511 15.6687C96.9538 17.9441 96.9518 20.2196 96.9518 22.4944C96.3545 22.5078 95.7572 22.5078 95.1598 22.495C95.1411 19.2379 95.1572 15.9801 95.1518 12.7229C95.1552 12.22 95.1411 11.7165 95.1652 11.2136ZM112.875 12.1591C114.075 11.4982 115.389 10.9256 116.785 10.9357C117.275 10.939 117.771 10.9176 118.259 10.9926C119.476 11.2229 120.517 12.3178 120.549 13.5807C120.614 15.4591 120.535 17.3395 120.555 19.2185C120.569 19.777 120.548 20.3455 120.685 20.8912C120.767 21.2595 121.11 21.4631 121.374 21.6955C121.115 22.0497 120.902 22.4488 120.565 22.7368C120.369 22.9008 120.127 22.7227 119.961 22.6022C119.525 22.2787 119.228 21.8086 118.987 21.3299C118.6 21.5408 118.303 21.877 117.926 22.104C117.269 22.5205 116.495 22.7682 115.714 22.7569C115.013 22.7729 114.296 22.6564 113.665 22.3437C112.64 21.8026 112.071 20.6227 112.1 19.4877C112.092 18.3968 112.645 17.3348 113.521 16.6912C114.569 15.9084 115.902 15.6506 117.181 15.5569C117.766 15.5053 118.354 15.5026 118.94 15.4772C118.964 14.9046 118.92 14.3314 118.838 13.7649C118.769 13.2834 118.54 12.7906 118.098 12.5488C117.568 12.2696 116.942 12.2629 116.363 12.3466C115.27 12.4799 114.244 12.9466 113.355 13.5834C113.118 13.2453 112.866 12.9151 112.664 12.5549C112.566 12.3747 112.725 12.2328 112.875 12.1591ZM134.959 10.9598C135.656 10.8629 136.365 10.8826 137.055 11.018C138.084 11.2648 138.99 11.875 139.605 12.7363C140.098 13.4261 140.42 14.2336 140.573 15.066C140.691 15.8638 140.737 16.6707 140.708 17.4767C140.677 18.7865 140.274 20.1037 139.475 21.1511C138.829 21.9895 137.827 22.4924 136.8 22.6785C135.551 22.8968 134.197 22.6758 133.153 21.9339C132.237 21.2816 131.653 20.2611 131.336 19.1997C131.165 18.6647 131.134 18.1002 131.094 17.5444C131.077 16.6082 131.059 15.6607 131.248 14.7386C131.507 13.6932 132.023 12.6881 132.823 11.9535C133.414 11.4069 134.161 11.0593 134.959 10.9598ZM143.769 11.3435C144.306 11.1921 144.841 11.0274 145.386 10.9042C145.673 11.4546 145.73 12.0814 145.76 12.6908C146.037 12.4839 146.268 12.2254 146.513 11.983C147.295 11.2089 148.424 10.7408 149.53 10.939V11.0776C149.288 11.6093 149.136 12.1765 148.909 12.7136C148.877 12.8127 148.741 12.7805 148.664 12.7993C148.182 12.8107 147.67 12.7986 147.236 13.0417C146.809 13.2916 146.433 13.6196 146.128 14.0086C145.831 14.383 145.889 14.8879 145.867 15.3339C145.839 15.9814 145.824 16.629 145.832 17.2765C145.829 19.0162 145.832 20.7553 145.83 22.4944C145.231 22.5078 144.632 22.5078 144.033 22.4944C144.024 20.5544 144.032 18.6138 144.029 16.6738C144.019 15.356 144.039 14.0361 143.971 12.7196C143.957 12.2528 143.808 11.8062 143.769 11.3435ZM100.463 11.3656C100.994 11.1982 101.532 11.0026 102.094 10.9919C102.296 11.5098 102.428 12.0523 102.486 12.6051C102.961 12.3118 103.36 11.9133 103.847 11.6374C104.783 11.0816 105.952 10.7013 107.019 11.0997C107.645 11.3207 108.254 11.6763 108.633 12.2368C108.943 12.6426 109.015 13.1669 109.047 13.6618C109.141 15.4229 109.111 17.1874 109.133 18.9499C109.132 20.1312 109.156 21.3118 109.159 22.4924C108.56 22.5098 107.96 22.5078 107.361 22.4937C107.36 20.5537 107.322 18.6138 107.318 16.6732C107.292 15.5937 107.349 14.5082 107.218 13.4341C107.056 12.9191 106.558 12.4886 106.005 12.4745C105.596 12.4578 105.173 12.4424 104.783 12.5863C103.926 12.9057 103.154 13.4167 102.456 14.002C102.436 16.8325 102.454 19.6645 102.446 22.4957C101.921 22.5064 101.396 22.5091 100.872 22.4924C100.87 20.8872 100.83 19.2828 100.822 17.6776C100.807 16.0256 100.82 14.3729 100.733 12.7229C100.715 12.2575 100.563 11.8162 100.463 11.3656Z" fill="#FC6723"/>
<path d="M55.8125 12.3754C56.5411 12.2033 57.348 12.2609 58.0023 12.6446C58.4687 12.9094 58.8349 13.3205 59.0442 13.8144C59.3891 14.6086 59.448 15.4865 59.4862 16.3403C59.5002 17.1606 59.519 17.9863 59.4052 18.8012C59.3154 19.4501 59.0596 20.0883 58.615 20.5758C58.0652 21.1497 57.2255 21.3579 56.4527 21.3077C55.6424 21.2515 54.798 20.8771 54.3862 20.1459C54.0092 19.4488 53.8605 18.6553 53.7661 17.8765C53.7092 17.2323 53.6529 16.5841 53.7139 15.9379C53.7674 15.07 53.8357 14.1492 54.3092 13.3925C54.642 12.8622 55.2105 12.5173 55.8125 12.3754ZM135.098 12.362C135.685 12.283 136.302 12.2682 136.87 12.4611C137.409 12.7042 137.875 13.1173 138.19 13.6175C138.556 14.2845 138.637 15.0593 138.698 15.8053C138.738 16.5184 138.732 17.2336 138.697 17.9468C138.65 18.5468 138.623 19.1642 138.394 19.7287C138.199 20.2048 137.892 20.6575 137.439 20.918C136.767 21.3077 135.942 21.3921 135.191 21.224C134.661 21.1082 134.151 20.843 133.801 20.4224C133.434 20.0006 133.259 19.4528 133.156 18.9131C133.008 18.1082 133.009 17.2879 132.986 16.4729C133.006 15.6104 132.962 14.7158 133.3 13.9015C133.573 13.1227 134.254 12.4544 135.098 12.362ZM86.6817 12.5635C87.1746 12.5227 87.6808 12.51 88.167 12.6178C88.7656 12.7463 89.2692 13.1716 89.5752 13.6919C89.9509 14.3267 90.0882 15.0727 90.1217 15.8012C90.1913 16.428 90.1136 17.0568 90.0755 17.6829C89.9851 18.4972 89.8377 19.3316 89.4179 20.0474C89.1226 20.553 88.6344 20.9461 88.0632 21.0907C86.8833 21.3921 85.5815 20.993 84.7103 20.1579C84.5985 20.0448 84.4344 19.939 84.4652 19.7561C84.4652 18.0365 84.4665 16.3175 84.4652 14.5979C84.4672 14.3836 84.4505 14.1687 84.4779 13.9557C85.0659 13.3082 85.7831 12.6894 86.6817 12.5635ZM115.871 16.8908C116.409 16.7401 116.971 16.7079 117.525 16.6557C117.969 16.6169 118.409 16.718 118.853 16.7039C118.842 17.624 118.859 18.5468 118.784 19.4642C118.758 19.9825 118.389 20.393 118.01 20.7077C117.558 21.07 117.033 21.3861 116.447 21.457C115.958 21.5006 115.447 21.4818 114.988 21.2896C114.591 21.1256 114.331 20.7492 114.172 20.3655C114.011 19.9805 114.063 19.5532 114.073 19.1474C114.094 18.7812 114.092 18.3887 114.288 18.0646C114.631 17.48 115.225 17.0742 115.871 16.8908Z" fill="#1F2023"/>
</g>
<defs>
<clipPath id="clip0_1146_27507">
<rect width="149.531" height="30" fill="white"/>
</clipPath>
</defs>
</svg>
